<svg xmlns="http://www.w3.org/2000/svg" xmlns:xlink="http://www.w3.org/1999/xlink" id="Capa_1" x="0" y="0" enable-background="new 0 0 512.001 512.001" version="1.1" viewBox="0 0 512.001 512.001" xml:space="preserve"><g><g><path d="M241,223.615h-4.186c-4.143,0-7.5,3.358-7.5,7.5c0,4.142,3.357,7.5,7.5,7.5H241c4.143,0,7.5-3.358,7.5-7.5 C248.5,226.973,245.143,223.615,241,223.615z"/></g></g><g><g><path d="M512.001,220.272c0-4.142-3.357-7.5-7.5-7.5s-7.5,3.358-7.5,7.5v40.728h-25v-81.458h25v9.126 c-0.001,4.142,3.356,7.499,7.499,7.499s7.5-3.358,7.5-7.5v-10.626c0-7.444-6.056-13.5-13.5-13.5h-28 c-7.093,0-12.912,5.501-13.447,12.458h-56.354v-18.5c0-4.142-3.357-7.5-7.5-7.5h-34.336c-7.259,0-13.164,5.905-13.164,13.164 v12.837h-87.823l12.413-50.717c0.547-2.237,0.037-4.602-1.385-6.414s-3.598-2.87-5.9-2.87h-25.426c-3.123,0-5.92,1.936-7.02,4.859 l-20.745,55.142H112.75c-4.143,0-7.5,3.358-7.5,7.5c0,4.142,3.357,7.5,7.5,7.5H457v69H48v-69h32.5c4.143,0,7.5-3.358,7.5-7.5 c0-4.142-3.357-7.5-7.5-7.5h-40c-4.143,0-7.5,3.358-7.5,7.5v9.436H16.5c-4.143,0-7.5,3.358-7.5,7.5v42c0,4.142,3.357,7.5,7.5,7.5 H33v10.064H11.69c-6.555,0-11.69,5.688-11.69,12.95v19.1c0,7.262,5.135,12.95,11.69,12.95h27.788 c-5.954,9.055-9.431,19.876-9.431,31.5c0,15.562,6.224,29.69,16.301,40.053c0.169,0.209,0.348,0.412,0.542,0.606 c0.194,0.194,0.397,0.374,0.606,0.542c10.363,10.076,24.49,16.299,40.051,16.299c15.559,0,29.685-6.222,40.047-16.296 c0.211-0.169,0.416-0.35,0.611-0.545c0.196-0.196,0.376-0.4,0.545-0.611c10.074-10.362,16.296-24.489,16.296-40.048 c0-1.856-0.096-3.689-0.269-5.5h113.555c4.143,0,7.5-3.358,7.5-7.5c0-4.142-3.357-7.5-7.5-7.5H141.256 c-1.488-3.886-3.385-7.57-5.64-11h168.083c0.152,3.842,0.884,7.537,2.112,11h-15.143c-4.143,0-7.5,3.358-7.5,7.5 c0,4.142,3.357,7.5,7.5,7.5H315.7c6.692,6.2,15.639,10,25.46,10h24.945c1.073,13.774,7.012,26.198,16.106,35.551 c0.169,0.21,0.349,0.414,0.544,0.609s0.399,0.375,0.609,0.544c10.363,10.075,24.49,16.297,40.05,16.297 c15.559,0,29.685-6.222,40.047-16.296c0.21-0.169,0.415-0.349,0.61-0.545c0.195-0.196,0.376-0.4,0.545-0.61 c10.066-10.354,16.285-24.466,16.296-40.01c0-0.013,0.002-0.026,0.002-0.039s-0.002-0.026-0.002-0.039 c-0.008-11.609-3.483-22.416-9.43-31.461h28.829c6.556,0,11.69-5.688,11.69-12.95v-19.1c0-2.121-0.448-4.1-1.232-5.85 c0.783-1.708,1.232-3.601,1.232-5.6V220.272z M242.433,177.001h-16.594l16.931-45h10.678L242.433,177.001z M385.699,177.001h-25 v-11h25V177.001z M24,235.936v-27h9v27H24z M129.443,344.603c-1.088,6.436-3.626,12.381-7.268,17.493 c-2.801-1.377-6.28-0.908-8.61,1.422c-2.331,2.33-2.801,5.81-1.423,8.611c-5.112,3.641-11.057,6.18-17.493,7.268 c-1.001-2.965-3.799-5.102-7.102-5.102s-6.101,2.137-7.102,5.102c-6.436-1.088-12.38-3.626-17.492-7.267 c1.378-2.802,0.908-6.282-1.423-8.612c-2.329-2.33-5.809-2.8-8.611-1.421c-3.642-5.112-6.18-11.057-7.268-17.493 c2.965-1.001,5.103-3.799,5.103-7.102s-2.138-6.101-5.103-7.102c1.088-6.436,3.626-12.381,7.268-17.493 c1.041,0.512,2.173,0.775,3.308,0.775c1.919,0,3.839-0.732,5.303-2.196c2.331-2.33,2.801-5.811,1.423-8.612 c5.112-3.642,11.057-6.181,17.492-7.268c1.001,2.965,3.799,5.102,7.102,5.102s6.101-2.137,7.102-5.102 c6.436,1.088,12.381,3.626,17.493,7.268c-1.378,2.801-0.908,6.281,1.423,8.611c1.464,1.464,3.384,2.196,5.303,2.196 c1.134,0,2.267-0.263,3.307-0.775c3.642,5.112,6.18,11.057,7.268,17.493c-2.965,1.001-5.102,3.799-5.102,7.102 S126.478,343.602,129.443,344.603z M366.89,327.001h-25.73c-11.902,0-21.676-9.291-22.45-21h25.16h31.474 C371.227,312.261,368.305,319.368,366.89,327.001z M465.309,344.603c-1.088,6.436-3.626,12.381-7.268,17.493 c-2.802-1.378-6.281-0.909-8.61,1.421c-2.331,2.33-2.801,5.81-1.423,8.612c-5.112,3.641-11.057,6.18-17.492,7.267 c-1.001-2.965-3.799-5.102-7.102-5.102c-3.303,0-6.101,2.138-7.102,5.102c-6.436-1.088-12.381-3.626-17.493-7.267 c1.378-2.801,0.908-6.281-1.423-8.612c-2.329-2.33-5.809-2.8-8.611-1.421c-3.642-5.112-6.18-11.057-7.268-17.493 c2.965-1.001,5.103-3.799,5.103-7.102s-2.138-6.101-5.103-7.102c1.088-6.436,3.626-12.381,7.268-17.493 c1.041,0.512,2.173,0.775,3.308,0.775c1.919,0,3.839-0.732,5.303-2.196c2.331-2.33,2.801-5.81,1.423-8.612 c5.111-3.641,11.056-6.18,17.493-7.267c1.001,2.965,3.799,5.102,7.102,5.102c3.303,0,6.101-2.137,7.102-5.102 c6.436,1.088,12.38,3.626,17.492,7.267c-1.378,2.801-0.908,6.281,1.423,8.612c1.464,1.464,3.384,2.196,5.303,2.196 c1.134,0,2.267-0.263,3.308-0.775c3.641,5.112,6.18,11.057,7.267,17.493c-2.965,1.001-5.102,3.799-5.102,7.102 S462.344,343.602,465.309,344.603z M497,291.001h-39.822c-9.489-6.909-21.156-11-33.765-11c-12.61,0-24.277,4.091-33.766,11 H121.313c-9.489-6.909-21.156-11-33.766-11s-24.277,4.091-33.766,11H15v-15h482V291.001z"/></g></g><g><g><path d="M87.986,312.353c-13.866,0-25.147,11.281-25.147,25.147c0,13.866,11.281,25.147,25.147,25.147 c13.866,0,25.146-11.281,25.146-25.147C113.132,323.634,101.852,312.353,87.986,312.353z M87.986,347.647 c-5.596,0-10.147-4.552-10.147-10.147c0-5.595,4.552-10.147,10.147-10.147c5.595,0,10.146,4.552,10.146,10.147 C98.132,343.095,93.58,347.647,87.986,347.647z"/></g></g><g><g><path d="M423.852,312.353c-13.866,0-25.147,11.281-25.147,25.147c0,13.866,11.28,25.147,25.147,25.147 c13.866,0,25.146-11.281,25.146-25.147C448.998,323.634,437.718,312.353,423.852,312.353z M423.852,347.647 c-5.596,0-10.147-4.552-10.147-10.147c0-5.595,4.551-10.147,10.147-10.147c5.595,0,10.146,4.552,10.146,10.147 C433.998,343.095,429.446,347.647,423.852,347.647z"/></g></g></svg>