<svg xmlns="http://www.w3.org/2000/svg" xmlns:xlink="http://www.w3.org/1999/xlink" id="Layer_1" x="0" y="0" enable-background="new 0 0 512 512" version="1.1" viewBox="0 0 512 512" xml:space="preserve"><path fill="#E2E2E2" d="M512,44.522v105.739v116.87V372.87c0,6.147-4.983,11.13-11.13,11.13H395.13h-116.87h-116.87H8.904	V267.13v-116.87V33.391h152.487h116.87h116.87H500.87C507.017,33.391,512,38.374,512,44.522z"/><path fill="#002E35" d="M395.13,150.261h-116.87V33.391h116.87V150.261z M33.391,33.391v116.87h128V33.391H33.391z M395.13,150.261v116.87H512v-116.87H395.13z M161.391,150.261v116.87h116.87v-116.87H161.391z M278.261,384h116.87V267.13h-116.87	V384z M33.391,384h128V267.13h-128V384z"/></svg>